<?xml version="1.0" ?><svg id="object" viewBox="0 0 32 32" xmlns="http://www.w3.org/2000/svg"><defs><style>.cls-1{fill:#96d7ff;}.cls-2{fill:#6d6daa;}.cls-3{fill:#ffc661;}.cls-4{fill:#eef5fd;}</style></defs><title/><path class="cls-1" d="M23,14A13.84,13.84,0,0,0,16,2,13.84,13.84,0,0,0,9,14v.11H9V26H23V14.11h0Z"/><path class="cls-2" d="M23,27H9a1,1,0,0,1-1-1V14A14.92,14.92,0,0,1,15.5,1.13a1,1,0,0,1,1,0A14.9,14.9,0,0,1,24,14V26A1,1,0,0,1,23,27ZM10,25H22V14h0A12.88,12.88,0,0,0,16,3.17,12.88,12.88,0,0,0,10,14V25Z"/><path class="cls-3" d="M3,23H9V16L2.73,17.79a1,1,0,0,0-.73,1V22A1,1,0,0,0,3,23Z"/><path class="cls-2" d="M9,24H3a2,2,0,0,1-2-2V18.75a2,2,0,0,1,1.45-1.92L8.73,15a1,1,0,0,1,.87.16,1,1,0,0,1,.4.8v7A1,1,0,0,1,9,24ZM8,17.33,3,18.75V22H8Z"/><path class="cls-3" d="M29,23H23V16l6.27,1.79a1,1,0,0,1,.73,1V22A1,1,0,0,1,29,23Z"/><path class="cls-2" d="M29,24H23a1,1,0,0,1-1-1V16a1,1,0,0,1,.4-.8,1,1,0,0,1,.87-.16l6.28,1.79A2,2,0,0,1,31,18.75V22A2,2,0,0,1,29,24Zm-5-2h5V18.75l-5-1.42Z"/><polygon class="cls-3" points="20.5 30 11.5 30 12.5 26 19.5 26 20.5 30"/><path class="cls-2" d="M20.5,31h-9a1,1,0,0,1-.79-.38,1,1,0,0,1-.18-.86l1-4a1,1,0,0,1,1-.76h7a1,1,0,0,1,1,.76l1,4a1,1,0,0,1-.18.86A1,1,0,0,1,20.5,31Zm-7.72-2h6.44l-.5-2H13.28Z"/><circle class="cls-4" cx="16" cy="16" r="4"/><path class="cls-2" d="M16,21a5,5,0,1,1,5-5A5,5,0,0,1,16,21Zm0-8a3,3,0,1,0,3,3A3,3,0,0,0,16,13Z"/></svg>